<?xml version="1.0" encoding="UTF-8" standalone="no"?>
<!-- Created with Inkscape (http://www.inkscape.org/) -->

<svg
   xmlns:dc="http://purl.org/dc/elements/1.1/"
   xmlns:cc="http://creativecommons.org/ns#"
   xmlns:rdf="http://www.w3.org/1999/02/22-rdf-syntax-ns#"
   xmlns:svg="http://www.w3.org/2000/svg"
   xmlns="http://www.w3.org/2000/svg"
   xmlns:sodipodi="http://sodipodi.sourceforge.net/DTD/sodipodi-0.dtd"
   xmlns:inkscape="http://www.inkscape.org/namespaces/inkscape"
   width="744.09448819"
   height="1052.3622047"
   id="svg2"
   inkscape:label="Pozadí"
   version="1.1"
   inkscape:version="0.48.5 r10040"
   sodipodi:docname="logo2.svg"
   inkscape:export-filename="/home/marek/weby/onoff/web_interface/static/logo2-med.png"
   inkscape:export-xdpi="58.439999"
   inkscape:export-ydpi="58.439999">
  <defs
     id="defs3" />
  <sodipodi:namedview
     id="base"
     pagecolor="#ffffff"
     bordercolor="#666666"
     borderopacity="1.0"
     inkscape:pageopacity="0.0"
     inkscape:pageshadow="2"
     inkscape:zoom="0.98994949"
     inkscape:cx="263.74307"
     inkscape:cy="653.36722"
     inkscape:document-units="px"
     inkscape:current-layer="layer1"
     showgrid="false"
     inkscape:window-width="1274"
     inkscape:window-height="968"
     inkscape:window-x="0"
     inkscape:window-y="30"
     inkscape:window-maximized="0" />
  <metadata
     id="metadata6">
    <rdf:RDF>
      <cc:Work
         rdf:about="">
        <dc:format>image/svg+xml</dc:format>
        <dc:type
           rdf:resource="http://purl.org/dc/dcmitype/StillImage" />
        <dc:title></dc:title>
      </cc:Work>
    </rdf:RDF>
  </metadata>
  <g
     inkscape:label="Vrstva 1"
     inkscape:groupmode="layer"
     id="layer1">
    <g
       id="g3967"
       inkscape:export-filename="/home/marek/weby/onoff/web_interface/static/logo2-med.png"
       inkscape:export-xdpi="58.439999"
       inkscape:export-ydpi="58.439999">
      <path
         style="fill:#ffffc5;fill-rule:evenodd;stroke:#ffff97;stroke-width:10.30939483999999950;stroke-linejoin:round;opacity:0"
         sodipodi:nodetypes="ccccccccc"
         id="path640"
         d="m 248.30427,162.04609 c 59.89682,63.28274 124.88976,144.12127 216.5878,32.14508 -18.61039,95.56568 -0.27265,141.14083 75.86897,127.43014 -69.6733,64.01859 16.48961,82.54948 23.62326,105.16917 C 487.39255,435.9432 414.961,405.08141 480.83638,559.0223 430.39723,411.65851 387.5398,517.87171 366.5223,543.88113 357.18942,532.91164 303.39594,465.2365 215.38952,493.47199 287.41916,391.29704 218.90095,387.27717 172.75858,360.6238 234.31409,344.89399 273.15187,346.05765 248.30427,162.04609 z"
         inkscape:connector-curvature="0" />
      <path
         style="fill:#c1ffff;fill-opacity:0.8;fill-rule:evenodd;stroke:#007dff;stroke-width:10;stroke-linejoin:round"
         sodipodi:nodetypes="cccccc"
         id="path618"
         d="m 257.56727,477.2205 c 21.13197,-47.21682 -30.77532,-96.18173 -8.97942,-151.415 28.36699,-53.345 68.54073,-93.33329 153.17206,-62.64387 77.95601,39.82266 86.7728,86.02349 61.86375,152.83783 -33.92529,68.48883 -105.19289,45.36336 -118.4167,97.80983 -9.23338,17.26233 -92.42091,-21.1105 -87.63969,-36.58879 z"
         inkscape:connector-curvature="0" />
      <path
         style="fill:#4c4c4c;fill-rule:evenodd;stroke:#000000;stroke-width:5;stroke-linejoin:round"
         sodipodi:nodetypes="ccc"
         id="path620"
         d="m 251.55197,471.87863 c 10.90995,-1.78616 98.10464,33.68974 102.45102,42.92827 -8.56945,9.24589 -97.09754,-23.11217 -102.45102,-42.92827 z"
         inkscape:connector-curvature="0" />
      <path
         style="fill:none;stroke:#000000;stroke-width:5;stroke-linejoin:round"
         sodipodi:nodetypes="cc"
         id="path631"
         d="m 278.85164,494.25698 c 49.1994,-86.35709 14.53675,-151.50167 6.31823,-176.77431"
         inkscape:connector-curvature="0" />
      <path
         style="fill:none;stroke:#000000;stroke-width:5;stroke-linejoin:round"
         sodipodi:nodetypes="cc"
         id="path632"
         d="M 322.51981,512.94766 C 336.9492,482.41214 384.3332,374.88272 447.03187,374.52503"
         inkscape:connector-curvature="0" />
      <path
         style="fill:none;stroke:#000000;stroke-width:5;stroke-linejoin:round"
         sodipodi:nodetypes="cc"
         id="path633"
         d="m 301.50847,508.03353 c 5.5692,-24.13018 22.35059,-114.16506 65.83545,-136.34343"
         inkscape:connector-curvature="0" />
      <path
         style="fill:#949999;fill-rule:evenodd;stroke:#000000;stroke-width:5;stroke-linejoin:round"
         sodipodi:nodetypes="ccccc"
         id="path619"
         d="m 251.99789,472.9919 c 14.48318,20.03411 79.74608,46.41329 102.0051,41.815 -12.79121,27.72979 -37.71141,68.71422 -48.39398,80.74205 -7.1225,8.02039 -76.94565,-22.78745 -78.84405,-35.59025 0.44038,-11.80177 16.67033,-64.80639 25.23293,-86.9668 z"
         inkscape:connector-curvature="0" />
      <path
         style="fill:#4c4c4c;fill-rule:evenodd;stroke:#000000;stroke-width:5;stroke-linejoin:round"
         sodipodi:nodetypes="ccccc"
         id="path621"
         d="m 230.88638,565.41226 c -0.37243,11.64555 0.4866,16.10381 2.37482,22.46765 7.62099,10.20566 30.68963,20.95648 47.73596,19.9191 5.65526,-2.43983 13.33374,-11.75919 13.58496,-12.34612 -12.65559,-0.60064 -53.22077,-17.99185 -63.69574,-30.04063 z"
         inkscape:connector-curvature="0" />
      <path
         style="fill:#b3b3b3;fill-rule:evenodd;stroke:#000000;stroke-width:5;stroke-linejoin:round"
         sodipodi:nodetypes="ccc"
         id="path622"
         d="m 241.26283,595.04159 c -7.56499,13.36438 21.38939,27.60214 26.17061,12.12385 -11.58072,-3.11191 -19.82164,-7.56157 -26.17061,-12.12385 z"
         inkscape:connector-curvature="0" />
      <path
         style="fill:#b3b3b3;fill-rule:evenodd;stroke:#000000;stroke-width:5;stroke-linejoin:round"
         sodipodi:nodetypes="ccccc"
         id="path623"
         d="m 229.65543,551.05043 c 25.39049,11.78886 84.03936,24.20184 91.30764,21.55641 6.22407,0.0229 6.94507,-4.18262 3.08773,-4.08561 -12.13808,1.16369 -77.13698,-14.69599 -94.39787,-23.92767 -3.98031,-1.70472 -6.51803,4.81137 0.003,6.45687 z"
         inkscape:connector-curvature="0" />
      <path
         style="fill:#b3b3b3;fill-rule:evenodd;stroke:#000000;stroke-width:5;stroke-linejoin:round"
         sodipodi:nodetypes="ccccc"
         id="path624"
         d="m 231.37837,536.4097 c 25.39049,11.78886 92.18295,28.03768 97.63667,23.91617 6.8985,-0.73698 8.16853,-5.40696 2.45542,-5.05566 -12.13808,1.16368 -80.63982,-15.49585 -97.90071,-24.72752 -4.57052,-1.95734 -6.77012,5.40289 -2.19138,5.86701 z"
         inkscape:connector-curvature="0" />
      <path
         style="fill:#b3b3b3;fill-rule:evenodd;stroke:#000000;stroke-width:5;stroke-linejoin:round"
         sodipodi:nodetypes="ccccc"
         id="path625"
         d="m 235.9283,523.32877 c 25.39049,11.78886 95.26271,26.56035 101.47635,23.11326 6.7718,-0.44095 6.48117,-4.73033 2.0327,-4.88634 -12.13808,1.16369 -84.64699,-15.11488 -101.90788,-24.34655 -4.10662,-1.40962 -7.61515,3.29319 -1.60117,6.11963 z"
         inkscape:connector-curvature="0" />
      <path
         style="fill:#b3b3b3;fill-rule:evenodd;stroke:#000000;stroke-width:5;stroke-linejoin:round"
         sodipodi:nodetypes="ccccc"
         id="path626"
         d="m 238.87582,509.91184 c 25.39049,11.78886 99.18772,29.63699 104.64144,25.51548 7.10899,0.40279 7.19769,-4.77283 2.74921,-4.92883 -12.13808,1.16369 -88.44401,-16.04065 -105.70491,-25.27233 -3.9803,-1.70472 -6.94111,2.53419 -1.68574,4.68568 z"
         inkscape:connector-curvature="0" />
      <path
         style="fill:#b3b3b3;fill-rule:evenodd;stroke:#000000;stroke-width:5;stroke-linejoin:round"
         sodipodi:nodetypes="ccccc"
         id="path627"
         d="m 243.34198,497.84322 c 25.39049,11.78886 102.26656,28.15927 107.72028,24.03775 4.91602,-0.18666 6.35485,-4.43523 1.90638,-4.59123 -12.13808,1.16368 -90.97513,-15.02683 -108.23602,-24.2585 -3.26287,-1.74682 -6.89863,3.25071 -1.39064,4.81198 z"
         inkscape:connector-curvature="0" />
      <path
         style="fill:#b3b3b3;fill-rule:evenodd;stroke:#000000;stroke-width:5;stroke-linejoin:round"
         sodipodi:nodetypes="ccccc"
         id="path628"
         d="m 247.47,484.93155 c 25.39049,11.78886 36.86775,15.19587 41.479,13.85845 -2.51685,-1.60155 -11.87145,-5.94484 -16.1949,-8.84285 0.0118,-0.27667 -16.71873,-5.61128 -23.38783,-11.00892 -4.10569,-1.40922 -6.09569,4.64297 -1.89627,5.99332 z"
         inkscape:connector-curvature="0" />
      <path
         style="fill:#b3b3b3;fill-rule:evenodd;stroke:#000000;stroke-width:5;stroke-linejoin:round"
         sodipodi:nodetypes="ccccc"
         id="path629"
         d="m 228.26949,564.08777 c 25.39048,11.78886 82.68958,25.72129 88.1433,21.59978 3.14356,-0.94531 3.35893,-3.96953 0.30271,-4.92847 -12.13808,1.16369 -72.45318,-13.38959 -89.71408,-22.62127 -4.14782,0.32076 -4.28202,3.67124 1.26807,5.94996 z"
         inkscape:connector-curvature="0" />
      <path
         style="fill:#b3b3b3;fill-rule:evenodd;stroke:#000000;stroke-width:5;stroke-linejoin:round"
         sodipodi:nodetypes="ccccc"
         id="path630"
         d="m 273.803,589.16878 c 12.73023,4.62205 22.81523,8.83199 30.00061,7.19858 7.23569,0.10677 8.97015,-4.01418 4.52168,-4.17018 -12.13808,1.16369 -45.40755,-8.80459 -51.14796,-10.65896 0.91569,0.74 16.26537,7.92341 16.62567,7.63056 z"
         inkscape:connector-curvature="0" />
      <path
         style="fill:none;stroke:#000000;stroke-width:1.25;stroke-dasharray:0.625,0.625;stroke-dashoffset:0;stroke-miterlimit:4"
         sodipodi:nodetypes="cccc"
         id="path634"
         d="m 285.33308,315.513 82.01084,56.1771 c 0,0 80.0166,3.65544 79.19609,3.98409 C 445.7195,376.00285 283.69206,316.1703 285.33308,315.513 z"
         inkscape:connector-curvature="0" />
      <path
         style="fill:#ffffff;fill-opacity:0.42963011;fill-rule:evenodd;stroke:none"
         sodipodi:nodetypes="ccc"
         id="path635"
         d="m 313.00233,517.71199 c -26.25189,20.03656 -41.83267,45.32037 -62.49303,88.82533 34.78343,-27.26241 54.87367,-61.49359 62.49303,-88.82533 z"
         inkscape:connector-curvature="0" />
      <path
         style="fill:#ffffff;fill-opacity:0.58518497;fill-rule:evenodd;stroke:none"
         sodipodi:nodetypes="ccccc"
         id="path644"
         d="m 319.57153,267.34793 c 17.78258,-11.45157 37.81035,-10.09223 47.88866,-4.74846 0.81191,6.53028 4.61023,16.91458 5.04703,20.70742 -20.95967,-2.7883 -28.17339,0.82247 -42.2269,7.17287 -4.91817,-11.3792 -10.95712,-23.75371 -10.70879,-23.13183 z"
         inkscape:connector-curvature="0" />
      <path
         style="fill:#ffffff;fill-opacity:0.58518497;fill-rule:evenodd;stroke:none"
         sodipodi:nodetypes="ccccc"
         id="path645"
         d="m 333.57911,296.01331 c 13.86348,-13.12902 36.62737,-12.14426 46.70568,-6.80049 0.81191,6.53028 1.30988,7.77352 1.74668,11.56636 -20.95966,-2.7883 -29.1683,1.94232 -43.22181,8.29273 -4.91817,-11.37921 -5.47888,-13.68049 -5.23055,-13.0586 z"
         inkscape:connector-curvature="0" />
      <path
         style="fill:#ffffff;fill-opacity:0.58518497;fill-rule:evenodd;stroke:none"
         sodipodi:nodetypes="ccccc"
         id="path646"
         d="m 290.46951,277.56124 c 9.7002,-4.60672 17.03784,-9.70905 27.05146,-9.03004 0.81191,6.53028 8.52934,18.59201 8.96613,22.38486 -6.6543,-1.30246 -20.21179,2.68446 -26.61765,5.60982 -4.91817,-11.3792 -9.64827,-19.58653 -9.39994,-18.96464 z"
         inkscape:connector-curvature="0" />
      <path
         style="fill:#ffffff;fill-opacity:0.58518497;fill-rule:evenodd;stroke:none"
         sodipodi:nodetypes="ccccc"
         id="path647"
         d="m 301.80013,300.44338 c 9.70021,-4.60671 17.16279,-7.59428 27.17641,-6.91527 0.81191,6.53028 4.66984,10.75732 5.10664,14.55017 -6.6543,-1.30246 -17.66219,2.74563 -24.06805,5.671 -3.9213,-8.89234 -8.96222,-15.17141 -8.215,-13.3059 z"
         inkscape:connector-curvature="0" />
    </g>
  </g>
</svg>
